<svg width="50" height="48" viewBox="0 0 50 48" fill="none" xmlns="http://www.w3.org/2000/svg">
<path d="M38.2812 0H11.7188C5.24666 0 0 5.0368 0 11.25V36.75C0 42.9632 5.24666 48 11.7188 48H38.2812C44.7533 48 50 42.9632 50 36.75V11.25C50 5.0368 44.7533 0 38.2812 0Z" fill="url(#paint0_radial_471_324)"/>
<path d="M38.2812 0H11.7188C5.24666 0 0 5.0368 0 11.25V36.75C0 42.9632 5.24666 48 11.7188 48H38.2812C44.7533 48 50 42.9632 50 36.75V11.25C50 5.0368 44.7533 0 38.2812 0Z" fill="url(#paint1_radial_471_324)"/>
<path d="M25.0018 5.25C19.6975 5.25 19.0316 5.27231 16.9484 5.36325C14.8691 5.45475 13.4498 5.77069 12.208 6.23438C10.9232 6.71325 9.83359 7.35394 8.74805 8.39644C7.66152 9.43875 6.99414 10.4848 6.49375 11.7176C6.00938 12.9101 5.67988 14.2733 5.58633 16.2684C5.49316 18.2685 5.46875 18.9079 5.46875 24.0002C5.46875 29.0925 5.49219 29.7296 5.58672 31.7295C5.68242 33.7256 6.01152 35.0882 6.49414 36.2803C6.99336 37.5137 7.66074 38.5598 8.74668 39.6019C9.83203 40.6449 10.9217 41.2871 12.2055 41.766C13.4482 42.2297 14.8678 42.5456 16.9467 42.6371C19.0301 42.7281 19.6953 42.7504 24.9994 42.7504C30.3043 42.7504 30.968 42.7281 33.0512 42.6371C35.1305 42.5456 36.5514 42.2297 37.7941 41.766C39.0783 41.2871 40.1664 40.6449 41.2516 39.6019C42.3381 38.5598 43.0053 37.5137 43.5059 36.2809C43.9859 35.0882 44.3156 33.7253 44.4133 31.7299C44.5068 29.73 44.5312 29.0925 44.5312 24.0002C44.5312 18.9079 44.5068 18.2689 44.4133 16.2688C44.3156 14.2727 43.9859 12.9103 43.5059 11.7182C43.0053 10.4848 42.3381 9.43875 41.2516 8.39644C40.1652 7.35356 39.0787 6.71288 37.793 6.23456C36.5479 5.77069 35.1277 5.45456 33.0484 5.36325C30.965 5.27231 30.3018 5.25 24.9957 5.25H25.0018ZM23.2496 8.62894C23.7697 8.62819 24.35 8.62894 25.0018 8.62894C30.2168 8.62894 30.8348 8.64694 32.8941 8.73675C34.7984 8.82038 35.832 9.12581 36.5205 9.3825C37.432 9.72225 38.0818 10.1286 38.765 10.785C39.4486 11.4413 39.8717 12.0662 40.2266 12.9412C40.4939 13.6012 40.8125 14.5935 40.8992 16.4216C40.9928 18.3983 41.0131 18.9919 41.0131 23.9959C41.0131 28.9999 40.9928 29.5937 40.8992 31.5701C40.8121 33.3983 40.4939 34.3905 40.2266 35.0507C39.8727 35.9258 39.4486 36.5488 38.765 37.2047C38.0814 37.8609 37.4324 38.2671 36.5205 38.607C35.8328 38.8648 34.7984 39.1695 32.8941 39.2531C30.8352 39.3429 30.2168 39.3624 25.0018 39.3624C19.7865 39.3624 19.1684 39.3429 17.1096 39.2531C15.2053 39.1688 14.1717 38.8633 13.4826 38.6066C12.5713 38.2667 11.9201 37.8606 11.2365 37.2043C10.5529 36.5481 10.1299 35.9246 9.775 35.0492C9.50762 34.389 9.18906 33.3968 9.10234 31.5686C9.00879 29.592 8.99004 28.9984 8.99004 23.9912C8.99004 18.9842 9.00879 18.3936 9.10234 16.4169C9.18945 14.5888 9.50762 13.5966 9.775 12.9356C10.1291 12.0606 10.5529 11.4356 11.2367 10.7794C11.9203 10.1231 12.5713 9.71681 13.4828 9.37631C14.1713 9.1185 15.2053 8.81381 17.1096 8.72981C18.9113 8.65162 19.6096 8.62819 23.2496 8.62425V8.62894ZM35.4275 11.7422C34.1336 11.7422 33.0838 12.7491 33.0838 13.9914C33.0838 15.2336 34.1336 16.2414 35.4275 16.2414C36.7215 16.2414 37.7713 15.2336 37.7713 13.9914C37.7713 12.7493 36.7215 11.7414 35.4275 11.7414V11.7422ZM25.0018 14.3711C19.4627 14.3711 14.9717 18.6825 14.9717 24.0002C14.9717 29.3179 19.4627 33.6272 25.0018 33.6272C30.541 33.6272 35.0305 29.3179 35.0305 24.0002C35.0305 18.6827 30.5406 14.3711 25.0014 14.3711H25.0018ZM25.0018 17.7501C28.5973 17.7501 31.5123 20.5481 31.5123 24.0002C31.5123 27.4519 28.5973 30.2503 25.0018 30.2503C21.4061 30.2503 18.4914 27.4519 18.4914 24.0002C18.4914 20.5481 21.4061 17.7501 25.0018 17.7501Z" fill="white"/>
<defs>
<radialGradient id="paint0_radial_471_324" cx="0" cy="0" r="1" gradientUnits="userSpaceOnUse" gradientTransform="translate(13.2812 51.6969) rotate(-90) scale(47.5716 46.0889)">
<stop stop-color="#FFDD55"/>
<stop offset="0.1" stop-color="#FFDD55"/>
<stop offset="0.5" stop-color="#FF543E"/>
<stop offset="1" stop-color="#C837AB"/>
</radialGradient>
<radialGradient id="paint1_radial_471_324" cx="0" cy="0" r="1" gradientUnits="userSpaceOnUse" gradientTransform="translate(-8.3752 3.45769) rotate(78.2223) scale(21.2996 91.157)">
<stop stop-color="#3771C8"/>
<stop offset="0.128" stop-color="#3771C8"/>
<stop offset="1" stop-color="#6600FF" stop-opacity="0"/>
</radialGradient>
</defs>
</svg>
