<svg width="54" height="50" viewBox="0 0 54 50" fill="none" xmlns="http://www.w3.org/2000/svg">
<path d="M4.00259 25.4542C4.0014 29.5631 5.13266 33.5751 7.28373 37.1114L3.79688 49.1937L16.8255 45.9516C20.4291 47.8133 24.4666 48.7889 28.5695 48.7892H28.5803C42.1249 48.7892 53.1505 38.3292 53.1562 25.4726C53.1588 19.2427 50.6047 13.3845 45.9642 8.97705C41.3246 4.57002 35.154 2.1417 28.5793 2.13885C15.0332 2.13885 4.00819 12.5982 4.00259 25.4542Z" fill="#73CA09"/>
<path d="M21.8781 14.3937C21.3748 13.3626 20.8452 13.3418 20.3665 13.3237C19.9746 13.3082 19.5266 13.3093 19.079 13.3093C18.631 13.3093 17.903 13.4647 17.2877 14.084C16.6718 14.7039 14.9362 16.2018 14.9362 19.2485C14.9362 22.2952 17.3436 25.2399 17.6792 25.6534C18.0152 26.0662 22.3268 32.5186 29.1553 35.0008C34.8303 37.0636 35.9852 36.6534 37.2169 36.5499C38.4487 36.4469 41.1918 35.0523 41.7514 33.6063C42.3114 32.1604 42.3114 30.921 42.1435 30.662C41.9756 30.404 41.5276 30.2491 40.8557 29.9395C40.1839 29.63 36.8808 28.1316 36.2651 27.9249C35.6492 27.7184 35.2014 27.6154 34.7533 28.2354C34.3053 28.8545 33.0188 30.2491 32.6267 30.662C32.2349 31.076 31.8428 31.1275 31.1712 30.8178C30.4989 30.5071 28.3353 29.854 25.7684 27.7445C23.7713 26.103 22.423 24.0759 22.0311 23.4559C21.6391 22.8368 21.9891 22.5012 22.3259 22.1926C22.6278 21.9151 22.998 21.4694 23.3342 21.108C23.6692 20.7463 23.781 20.4883 24.005 20.0753C24.2292 19.6619 24.117 19.3003 23.9493 18.9905C23.781 18.6808 22.4755 15.6181 21.8781 14.3937Z" fill="white"/>
</svg>
