<svg width="50" height="48" viewBox="0 0 50 48" fill="none" xmlns="http://www.w3.org/2000/svg">
<g clip-path="url(#clip0_471_317)">
<path d="M25 0C18.3711 0 12.0078 2.53013 7.32422 7.02938C2.63583 11.5304 0.0013416 17.6347 0 24C0 30.3626 2.63672 36.4714 7.32422 40.9706C12.0078 45.4699 18.3711 48 25 48C31.6289 48 37.9922 45.4699 42.6758 40.9706C47.3633 36.4714 50 30.3626 50 24C50 17.6374 47.3633 11.5286 42.6758 7.02938C37.9922 2.53013 31.6289 0 25 0Z" fill="url(#paint0_linear_471_317)"/>
<path d="M11.3164 23.7461C18.6054 20.6981 23.4648 18.6886 25.8945 17.7176C32.8398 14.9452 34.2812 14.4637 35.2226 14.4474C35.4297 14.4442 35.8906 14.4933 36.1914 14.7268C36.4414 14.9237 36.5117 15.1899 36.5468 15.3768C36.5781 15.5636 36.6211 15.9892 36.5859 16.3215C36.2109 20.1165 34.582 29.3257 33.7539 33.5763C33.4062 35.3748 32.7148 35.9778 32.0469 36.0367C30.5937 36.165 29.4922 35.1157 28.0859 34.2311C25.8867 32.8462 24.6445 31.9845 22.5078 30.6333C20.039 29.0718 21.6406 28.2135 23.0469 26.811C23.414 26.4438 29.8125 20.8582 29.9336 20.3516C29.9492 20.2882 29.9648 20.052 29.8164 19.9275C29.6719 19.8026 29.457 19.8453 29.3008 19.8791C29.0781 19.9271 25.5664 22.1576 18.7539 26.5702C17.7578 27.228 16.8554 27.5486 16.0429 27.5317C15.1523 27.5133 13.4336 27.0472 12.1562 26.649C10.5937 26.1603 9.34763 25.902 9.45701 25.0721C9.51169 24.6401 10.1328 24.198 11.3164 23.7461Z" fill="white"/>
</g>
<defs>
<linearGradient id="paint0_linear_471_317" x1="2500" y1="0" x2="2500" y2="4800" gradientUnits="userSpaceOnUse">
<stop stop-color="#2AABEE"/>
<stop offset="1" stop-color="#229ED9"/>
</linearGradient>
<clipPath id="clip0_471_317">
<rect width="50" height="48" fill="white"/>
</clipPath>
</defs>
</svg>
