<svg width="50" height="48" viewBox="0 0 50 48" fill="none" xmlns="http://www.w3.org/2000/svg">
<g clip-path="url(#clip0_471_320)">
<path d="M1.06702 23.7126C1.06584 27.7455 2.17209 31.6834 4.27561 35.1543L0.865845 47.0132L13.6065 43.8311C17.1304 45.6584 21.0786 46.6159 25.0908 46.6162H25.1014C38.3465 46.6162 49.1283 36.3496 49.134 23.7306C49.1366 17.6158 46.6389 11.8659 42.101 7.53994C37.5639 3.21436 31.5297 0.830916 25.1004 0.828125C11.8537 0.828125 1.07268 11.0942 1.06721 23.7126" fill="url(#paint0_linear_471_320)"/>
<path d="M0.208984 23.7053C0.207617 27.8833 1.35352 31.962 3.53203 35.5572L0 47.8413L13.1975 44.5451C16.8338 46.4337 20.9279 47.4294 25.0939 47.4309H25.1047C38.825 47.4309 49.9941 36.795 50 23.7243C50.0023 17.3898 47.4148 11.4331 42.7148 6.95219C38.0143 2.47181 31.7643 0.00260465 25.1047 0C11.382 0 0.214453 10.6344 0.208984 23.7053ZM8.06855 34.938L7.57578 34.1929C5.5043 31.0554 4.41094 27.4298 4.4125 23.7068C4.4168 12.8426 13.6988 4.00372 25.1125 4.00372C30.6398 4.00595 35.8344 6.05842 39.7414 9.78233C43.6482 13.5066 45.798 18.4573 45.7967 23.7228C45.7916 34.587 36.5094 43.427 25.1047 43.427H25.0965C21.383 43.4251 17.741 42.4752 14.5648 40.68L13.809 40.253L5.97734 42.2089L8.06855 34.938Z" fill="url(#paint1_linear_471_320)"/>
<path d="M18.8824 13.7954C18.4164 12.8088 17.926 12.7889 17.4828 12.7716C17.1199 12.7567 16.7051 12.7578 16.2906 12.7578C15.8758 12.7578 15.2018 12.9065 14.6321 13.499C14.0617 14.0922 12.4547 15.5255 12.4547 18.4406C12.4547 21.3558 14.6838 24.1733 14.9946 24.569C15.3057 24.964 19.2979 31.1377 25.6205 33.5128C30.8752 35.4866 31.9446 35.094 33.085 34.995C34.2256 34.8964 36.7654 33.5621 37.2836 32.1785C37.8022 30.795 37.8022 29.6092 37.6467 29.3614C37.4912 29.1145 37.0764 28.9662 36.4543 28.67C35.8322 28.3738 32.7738 26.9402 32.2037 26.7424C31.6334 26.5448 31.2188 26.4462 30.8039 27.0395C30.3891 27.6319 29.1979 28.9662 28.8348 29.3614C28.4721 29.7575 28.109 29.8068 27.4871 29.5104C26.8647 29.2131 24.8614 28.5882 22.4846 26.5697C20.6354 24.9991 19.3869 23.0596 19.024 22.4663C18.6612 21.8739 18.9852 21.5528 19.2971 21.2576C19.5766 20.9921 19.9194 20.5656 20.2307 20.2198C20.5408 19.8737 20.6444 19.6269 20.8518 19.2317C21.0594 18.8362 20.9555 18.4901 20.8002 18.1937C20.6444 17.8974 19.4356 14.9669 18.8824 13.7954Z" fill="white"/>
</g>
<defs>
<linearGradient id="paint0_linear_471_320" x1="2414.27" y1="4619.34" x2="2414.27" y2="0.828125" gradientUnits="userSpaceOnUse">
<stop stop-color="#1FAF38"/>
<stop offset="1" stop-color="#60D669"/>
</linearGradient>
<linearGradient id="paint1_linear_471_320" x1="2500" y1="4784.13" x2="2500" y2="0" gradientUnits="userSpaceOnUse">
<stop stop-color="#F9F9F9"/>
<stop offset="1" stop-color="white"/>
</linearGradient>
<clipPath id="clip0_471_320">
<rect width="50" height="48" fill="white"/>
</clipPath>
</defs>
</svg>
