<svg width="45" height="45" viewBox="0 0 45 45" fill="none" xmlns="http://www.w3.org/2000/svg">
<path d="M22.5 2.34375C11.3578 2.35594 2.33438 11.3981 2.34657 22.5403C2.34942 25.9215 3.20279 29.2476 4.82813 32.2125L3.28126 41.7188L12.7875 40.1719C22.5469 45.525 34.8 41.9541 40.1531 32.1938C45.5063 22.4334 41.9363 10.1822 32.1759 4.82812C29.2105 3.20135 25.8824 2.34699 22.5 2.34375ZM12.4219 11.5031H17.9156C18.1643 11.5031 18.4027 11.6019 18.5785 11.7777C18.7544 11.9535 18.8531 12.192 18.8531 12.4406C18.8224 13.6909 19.0324 14.9354 19.4719 16.1063C19.6611 16.4982 19.7027 16.9452 19.5891 17.3654C19.4754 17.7855 19.2142 18.1506 18.8531 18.3938L16.9313 20.2688C17.7834 21.9329 18.8976 23.4491 20.2313 24.7594C21.5309 26.1147 23.041 27.2512 24.7031 28.125L26.5781 26.2031C27.5156 25.2656 27.9469 25.2656 28.8656 25.5844C30.0365 26.0238 31.281 26.2339 32.5313 26.2031C32.7762 26.2145 33.0081 26.317 33.1815 26.4904C33.3549 26.6638 33.4573 26.8957 33.4688 27.1406V32.6344C33.4573 32.8793 33.3549 33.1112 33.1815 33.2846C33.0081 33.458 32.7762 33.5605 32.5313 33.5719C27.0165 33.3316 21.7891 31.0454 17.8688 27.1594C13.9766 23.2432 11.6894 18.0133 11.4563 12.4969C11.4585 12.2388 11.5601 11.9916 11.7399 11.8065C11.9198 11.6214 12.164 11.5128 12.4219 11.5031Z" stroke="white" stroke-width="2" stroke-linecap="round" stroke-linejoin="round"/>
</svg>
